<svg xmlns="http://www.w3.org/2000/svg" viewBox="0 0 512 512">
  <defs>
    <linearGradient id="grad" x1="0%" y1="0%" x2="100%" y2="100%">
      <stop offset="0%" style="stop-color:#ff9ac2;stop-opacity:1" />
      <stop offset="100%" style="stop-color:#ffc1e0;stop-opacity:1" />
    </linearGradient>
  </defs>
  
  <!-- Tło -->
  <rect width="512" height="512" rx="100" fill="url(#grad)"/>
  
  <!-- Serce -->
  <path d="M256 448 C100 320 80 200 80 160 C80 80 140 60 180 80 C220 100 240 140 256 160 C272 140 292 100 332 80 C372 60 432 80 432 160 C432 200 412 320 256 448 Z" 
        fill="#fff" opacity="0.95"/>
  
  <!-- Iskierki -->
  <circle cx="140" cy="140" r="16" fill="#fff" opacity="0.9"/>
  <circle cx="372" cy="140" r="12" fill="#fff" opacity="0.9"/>
  <circle cx="256" cy="100" r="14" fill="#fff" opacity="0.9"/>
  <circle cx="180" cy="420" r="10" fill="#fff" opacity="0.8"/>
  <circle cx="332" cy="420" r="10" fill="#fff" opacity="0.8"/>
  
  <!-- Cień serca -->
  <ellipse cx="256" cy="440" rx="120" ry="20" fill="#ff6b9d" opacity="0.3"/>
</svg>
