<svg xmlns="http://www.w3.org/2000/svg" viewBox="0 0 500 500" width="100%" height="100%">
  <defs>
    <!-- Cień, który "kradnie" kolor z Twojego aktualnego motywu -->
    <filter id="shadow" x="-20%" y="-20%" width="140%" height="140%">
      <feDropShadow dx="0" dy="15" stdDeviation="15" flood-color="var(--primary-color, #D81B60)" flood-opacity="0.3" />
    </filter>
    
    <!-- Efekt ziarna/papieru (vintage grain) -->
    <filter id="noise">
      <feTurbulence type="fractalNoise" baseFrequency="0.8" numOctaves="3" stitchTiles="stitch"/>
      <feColorMatrix type="matrix" values="0 0 0 0 0, 0 0 0 0 0, 0 0 0 0 0, 0 0 0 0.12 0" />
    </filter>
  </defs>

  <g filter="url(#shadow)">
    <!-- Nóżki budzika -->
    <path d="M 160 380 L 130 460" stroke="#B0BEC5" stroke-width="24" stroke-linecap="round" />
    <path d="M 340 380 L 370 460" stroke="#B0BEC5" stroke-width="24" stroke-linecap="round" />
    <circle cx="130" cy="460" r="12" fill="#90A4AE" />
    <circle cx="370" cy="460" r="12" fill="#90A4AE" />

    <!-- Mocowania dzwonków -->
    <path d="M 160 140 L 140 80" stroke="#B0BEC5" stroke-width="14" stroke-linecap="round" />
    <path d="M 340 140 L 360 80" stroke="#B0BEC5" stroke-width="14" stroke-linecap="round" />

    <!-- Dzwonki na górze (kolor główny aplikacji) -->
    <path d="M 40 110 C 40 20 180 20 200 90 Z" fill="var(--primary-color, #FF6B81)" transform="rotate(-20 120 80)" />
    <path d="M 300 90 C 320 20 460 20 460 110 Z" fill="var(--primary-color, #FF6B81)" transform="rotate(20 380 80)" />

    <!-- Estetyczne linie wibracji -->
    <g stroke="var(--text-primary, #1A1A1A)" stroke-width="4" stroke-linecap="round" fill="none" opacity="0.4">
      <path d="M 50 40 C 30 60 20 80 20 110" />
      <path d="M 25 25 C 0 50 -10 80 -10 120" />
      <path d="M 450 40 C 470 60 480 80 480 110" />
      <path d="M 475 25 C 500 50 510 80 510 120" />
    </g>

    <!-- Młoteczek na środku -->
    <path d="M 250 110 L 250 50" stroke="#B0BEC5" stroke-width="8" />
    <rect x="230" y="40" width="40" height="18" rx="6" fill="var(--primary-color, #D81B60)" />

    <!-- Główna bryła serca (KAMELEON - zmienia się wraz z motywem) -->
    <path d="M 250 140 C 250 140 20 20 20 220 C 20 360 250 470 250 470 C 250 470 480 360 480 220 C 480 20 250 140 250 140 Z" 
          fill="var(--primary-color, #FF6B81)" />
    
    <!-- Wewnętrzne obramowanie (półprzezroczyste, by wpuścić tło) -->
    <path d="M 250 150 C 250 150 40 40 40 220 C 40 345 250 455 250 455 C 250 455 460 345 460 220 C 460 40 250 150 250 150 Z" 
          fill="var(--card-bg, #ffffff)" opacity="0.3" />

    <!-- Tarcza zegara (dopasowuje się do tła kart w aplikacji) -->
    <path d="M 250 170 C 250 170 70 80 70 220 C 70 325 250 425 250 425 C 250 425 430 325 430 220 C 430 80 250 170 250 170 Z" 
          fill="var(--card-bg, #FFE4E8)" />
          
    <!-- Mocna, motywacyjna typografia z dynamicznym kolorem tekstu -->
    <g font-family="'Courier New', Courier, 'Arial Black', sans-serif" font-weight="900" font-size="34" fill="var(--text-primary, #1A1A1A)" text-anchor="middle">
      <text x="250" y="240" letter-spacing="1">TIME TO</text>
      <text x="250" y="295" letter-spacing="1">PUT YOURSELF</text>
      <text x="250" y="350" letter-spacing="3">FIRST</text>
    </g>
  </g>

  <!-- Magiczne, estetyczne gwiazdki iskierki ustawione symetrycznie przy tarczy -->
  <g fill="var(--primary-color, #FF6B81)" opacity="0.82">
    <path d="M 112 262 Q 124 262 124 250 Q 124 262 136 262 Q 124 262 124 274 Q 124 262 112 262 Z" />
    <path d="M 388 180 Q 398 180 398 170 Q 398 180 408 180 Q 398 180 398 190 Q 398 180 388 180 Z" />
    <path d="M 360 345 Q 372 345 372 333 Q 372 345 384 345 Q 372 345 372 357 Q 372 345 360 345 Z" opacity="0.65" />
    <circle cx="145" cy="312" r="4.5" opacity="0.7" />
    <circle cx="358" cy="128" r="3.8" opacity="0.6" />
  </g>

  <!-- Warstwa tekstury pokrywająca całą grafikę -->
  <rect x="0" y="0" width="100%" height="100%" filter="url(#noise)" style="pointer-events: none;" />
</svg>
